<svg width="512" height="512" viewBox="0 0 512 512" fill="none" xmlns="http://www.w3.org/2000/svg">
  <rect width="512" height="512" rx="64" fill="#000000"/>
  <path d="M256 128C256 128 192 192 192 256C192 320 224 384 256 384C288 384 320 320 320 256C320 192 256 128 256 128Z" fill="#FFFFFF"/>
  <path d="M192 256C192 256 160 224 128 192C96 160 64 128 64 128C64 128 96 160 128 192C160 224 192 256 192 256Z" fill="#FFFFFF" opacity="0.5"/>
  <path d="M320 256C320 256 352 224 384 192C416 160 448 128 448 128C448 128 416 160 384 192C352 224 320 256 320 256Z" fill="#FFFFFF" opacity="0.5"/>
  <circle cx="256" cy="256" r="32" fill="#000000"/>
</svg>

